<?xml version="1.0" encoding="UTF-8"?>
<svg width="210" height="80" xmlns="http://www.w3.org/2000/svg" xml:space="preserve" version="1.1">
 <metadata id="metadata8">image/svg+xml</metadata>
 <defs id="defs6">
  <clipPath id="clipPath18" clipPathUnits="userSpaceOnUse">
   <path id="path16" d="m-54,137.106l263.373,0l0,-113.106l-263.373,0l0,113.106z"/>
  </clipPath>
 </defs>
 <g>
  <title>Layer 1</title>
  <g transform="matrix(1.33333 0 0 -1.33333 0 150.808)"   id="g10">
   <g id="g12">
    <g clip-path="url(#clipPath18)" id="g14">
     <g id="g20">
      <path fill-rule="nonzero" fill="#231f20" id="path22" d="m50.5159,55.834l0,1.937l7.377,0c0.33,0 0.615,0.086 0.854,0.259c0.239,0.172 0.359,0.43 0.359,0.775c0,0.229 -0.049,0.426 -0.149,0.592c-0.099,0.165 -0.264,0.301 -0.495,0.409c-0.231,0.107 -0.429,0.186 -0.594,0.237c-0.165,0.05 -0.429,0.114 -0.792,0.193c-0.363,0.079 -0.602,0.133 -0.718,0.161l-2.525,0.603c-1.353,0.316 -2.274,0.729 -2.76,1.238c-0.487,0.509 -0.73,1.202 -0.73,2.077c0,1.034 0.297,1.78 0.891,2.24c0.594,0.459 1.551,0.688 2.871,0.688l7.402,0l0,-1.937l-6.956,0c-0.495,0 -0.85,-0.073 -1.064,-0.215c-0.215,-0.144 -0.322,-0.417 -0.322,-0.819c0,-0.301 0.12,-0.556 0.359,-0.764c0.239,-0.208 0.47,-0.348 0.693,-0.419c0.223,-0.072 0.557,-0.165 1.003,-0.28l2.821,-0.689c0.578,-0.143 1.024,-0.263 1.337,-0.355c0.314,-0.094 0.673,-0.23 1.077,-0.41c0.404,-0.179 0.709,-0.376 0.916,-0.591c0.206,-0.215 0.384,-0.495 0.532,-0.84c0.149,-0.344 0.223,-0.739 0.223,-1.184c0,-0.947 -0.239,-1.668 -0.718,-2.163c-0.478,-0.495 -1.312,-0.743 -2.5,-0.743l-8.392,0z"/>
     </g>
     <g id="g24">
      <path fill-rule="nonzero" fill="#231f20" id="path26" d="m66.50759,61.5606c0,-1.421 0.297,-2.43 0.892,-3.024c0.593,-0.596 1.625,-0.894 3.094,-0.894c1.469,0 2.5,0.298 3.094,0.894c0.594,0.594 0.891,1.603 0.891,3.024c0,1.406 -0.297,2.403 -0.891,2.992c-0.594,0.588 -1.625,0.882 -3.094,0.882c-1.469,0 -2.501,-0.294 -3.094,-0.882c-0.595,-0.589 -0.892,-1.586 -0.892,-2.992m10.967,0c0,-2.211 -0.549,-3.739 -1.647,-4.585c-1.097,-0.848 -2.875,-1.27 -5.334,-1.27c-2.46,0 -4.237,0.422 -5.335,1.27c-1.098,0.846 -1.646,2.374 -1.646,4.585c0,2.181 0.553,3.694 1.659,4.542c1.105,0.847 2.879,1.27 5.322,1.27c2.442,0 4.216,-0.423 5.322,-1.27c1.106,-0.848 1.659,-2.361 1.659,-4.542"/>
     </g>
     <path fill-rule="nonzero" fill="#231f20" id="path28" d="m79.355,70.902l2.896,0l0,-15.068l-2.896,0l0,15.068z"/>
     <g id="g30">
      <path fill-rule="nonzero" fill="#231f20" id="path32" d="m96.65899,67.2432l0,-9.472c0,-1.291 -0.743,-1.937 -2.228,-1.937l-4.802,0c-1.618,0 -2.872,0.294 -3.763,0.883c-0.891,0.588 -1.337,1.592 -1.337,3.013l0,7.513l2.897,0l0,-6.846c0,-0.889 0.214,-1.55 0.643,-1.98c0.429,-0.43 1.131,-0.646 2.104,-0.646l2.847,0c0.495,0 0.743,0.216 0.743,0.646l0,8.826l2.896,0z"/>
     </g>
     <g id="g34">
      <path fill-rule="nonzero" fill="#231f20" id="path36" d="m106.2386,55.834l-1.807,0c-1.568,0 -2.764,0.287 -3.589,0.861c-0.826,0.575 -1.238,1.529 -1.238,2.864l0,5.747l-1.807,0l0,1.937l1.807,0l0,3.659l2.896,0l0,-3.659l3.738,0l0,-1.937l-3.738,0l0,-5.231c0,-0.833 0.248,-1.425 0.743,-1.776c0.495,-0.352 1.254,-0.528 2.277,-0.528l0.718,0l0,-1.937z"/>
     </g>
     <path fill-rule="nonzero" fill="#231f20" id="path38" d="m107.377,67.243l2.896,0l0,-11.409l-2.896,0l0,11.409zm2.897,1.507l-2.896,0l0,2.324l2.896,0l0,-2.324z"/>
     <g id="g40">
      <path fill-rule="nonzero" fill="#231f20" id="path42" d="m115.1502,61.5606c0,-1.421 0.297,-2.43 0.892,-3.024c0.593,-0.596 1.625,-0.894 3.094,-0.894c1.469,0 2.5,0.298 3.094,0.894c0.594,0.594 0.891,1.603 0.891,3.024c0,1.406 -0.297,2.403 -0.891,2.992c-0.594,0.588 -1.625,0.882 -3.094,0.882c-1.469,0 -2.501,-0.294 -3.094,-0.882c-0.595,-0.589 -0.892,-1.586 -0.892,-2.992m10.967,0c0,-2.211 -0.549,-3.739 -1.647,-4.585c-1.097,-0.848 -2.875,-1.27 -5.334,-1.27c-2.46,0 -4.237,0.422 -5.335,1.27c-1.098,0.846 -1.646,2.374 -1.646,4.585c0,2.181 0.553,3.694 1.659,4.542c1.105,0.847 2.879,1.27 5.322,1.27c2.442,0 4.216,-0.423 5.322,-1.27c1.106,-0.848 1.659,-2.361 1.659,-4.542"/>
     </g>
     <g id="g44">
      <path fill-rule="nonzero" fill="#231f20" id="path46" d="m127.99789,55.834l0,9.472c0,1.292 0.743,1.937 2.228,1.937l4.605,0c1.617,0 2.871,-0.294 3.762,-0.883c0.891,-0.588 1.337,-1.592 1.337,-3.013l0,-7.513l-2.896,0l0,6.846c0,0.889 -0.215,1.55 -0.644,1.98c-0.429,0.431 -1.131,0.646 -2.104,0.646l-2.649,0c-0.495,0 -0.743,-0.215 -0.743,-0.646l0,-8.826l-2.896,0z"/>
     </g>
     <g id="g48">
      <path fill-rule="nonzero" fill="#231f20" id="path50" d="m141.8851,55.834l0,1.937l7.377,0c0.33,0 0.615,0.086 0.854,0.259c0.239,0.172 0.359,0.43 0.359,0.775c0,0.229 -0.049,0.426 -0.149,0.592c-0.099,0.165 -0.264,0.301 -0.495,0.409c-0.231,0.107 -0.429,0.186 -0.594,0.237c-0.165,0.05 -0.429,0.114 -0.792,0.193c-0.363,0.079 -0.602,0.133 -0.718,0.161l-2.525,0.603c-1.353,0.316 -2.274,0.729 -2.76,1.238c-0.487,0.509 -0.73,1.202 -0.73,2.077c0,1.034 0.297,1.78 0.891,2.24c0.594,0.459 1.551,0.688 2.871,0.688l7.402,0l0,-1.937l-6.956,0c-0.495,0 -0.85,-0.073 -1.064,-0.215c-0.215,-0.144 -0.322,-0.417 -0.322,-0.819c0,-0.301 0.12,-0.556 0.359,-0.764c0.239,-0.208 0.47,-0.348 0.693,-0.419c0.223,-0.072 0.557,-0.165 1.003,-0.28l2.821,-0.689c0.578,-0.143 1.024,-0.263 1.337,-0.355c0.314,-0.094 0.673,-0.23 1.077,-0.41c0.404,-0.179 0.709,-0.376 0.916,-0.591c0.206,-0.215 0.384,-0.495 0.532,-0.84c0.149,-0.344 0.223,-0.739 0.223,-1.184c0,-0.947 -0.239,-1.668 -0.718,-2.163c-0.478,-0.495 -1.312,-0.743 -2.5,-0.743l-8.392,0z"/>
     </g>
     <g id="g52">
      <path fill-rule="nonzero" fill="#ea002a" id="path54" d="m36.5677,105.5293l-2.549,0c-1.015,0 -1.837,-0.822 -1.837,-1.837l0,-18.879c0,-1.014 0.822,-1.836 1.837,-1.836l2.549,0c1.014,0 1.836,0.822 1.836,1.836l0,18.879c0,1.015 -0.822,1.837 -1.836,1.837"/>
     </g>
     <g id="g56">
      <path fill-rule="nonzero" fill="#ea002a" id="path58" d="m27.39969,105.5293c-1.606,0 -2.956,-0.964 -3.609,-2.343l-6.769,-14.38c-0.16,-0.34 -0.479,-0.893 -0.745,-0.893c-0.266,0 -0.585,0.553 -0.745,0.893l-6.815,14.38c-0.653,1.379 -2.002,2.343 -3.609,2.343l-3.937,0l10.745,-20.808c1.064,-2.042 3.244,-2 4.361,-2c1.543,0 3.351,0.085 4.308,2l10.745,20.808l-3.93,0z"/>
     </g>
     <g id="g60">
      <path fill-rule="nonzero" fill="#ea002a" id="path62" d="m146.11259,108.9854c0,1.015 -0.822,1.837 -1.837,1.837l-2.549,0c-1.014,0 -1.837,-0.822 -1.837,-1.837l0,-18.646c0,-2.852 1.011,-4.511 2.819,-5.703c1.755,-1.148 3.776,-1.659 7.553,-1.659l2.046,0c1.014,0 1.837,0.822 1.837,1.836l0,1.993l-1.543,0c-1.117,0 -3.457,0.043 -4.84,0.979c-1.809,1.191 -1.649,3.319 -1.649,4.851l0,16.349z"/>
     </g>
     <g id="g64">
      <path fill-rule="nonzero" fill="#ea002a" id="path66" d="m106.27369,86.8067c-1.117,0 -3.458,0.043 -4.84,0.979c-1.808,1.191 -1.649,3.319 -1.649,4.851l0,9.063l6.035,0c1.014,0 1.836,0.822 1.836,1.837l0,1.993l-7.871,0l0,3.456l-0.001,0c0,1.014 -0.822,1.837 -1.836,1.837l-2.549,0c-1.015,0 -1.837,-0.823 -1.837,-1.837l0,-3.456l-12.978,0l0,3.456c0,1.014 -0.822,1.837 -1.837,1.837l-2.549,0c-1.014,0 -1.837,-0.823 -1.837,-1.837l0,-3.456l-3.883,0l0,-1.993c0,-1.015 0.823,-1.837 1.837,-1.837l2.046,0l0,-11.361c0,-2.851 1.011,-4.511 2.819,-5.702c1.755,-1.148 3.776,-1.659 7.553,-1.659l2.046,0c1.014,0 1.837,0.822 1.837,1.836l0,1.993l-1.543,0c-1.117,0 -3.457,0.043 -4.84,0.979c-1.809,1.191 -1.649,3.319 -1.649,4.851l0,9.063l12.978,0l0,-11.361c0,-2.851 1.01,-4.511 2.819,-5.702c1.755,-1.148 3.776,-1.659 7.552,-1.659l2.046,0c1.015,0 1.837,0.822 1.837,1.836l0,1.993l-1.542,0z"/>
     </g>
     <g id="g68">
      <path fill-rule="nonzero" fill="#ea002a" id="path70" d="m62.6585,97.7422c0,-0.596 -0.159,-1.319 -1.383,-1.319l-8.85,0c-2.251,0 -4.075,-1.029 -4.075,-2.298l0,2.298c0.053,1.49 0,2.723 1.277,3.873c1.702,1.531 4.255,1.488 5.904,1.488c1.755,0 3.776,-0.085 5.319,-1.021c0.904,-0.553 1.808,-1.617 1.808,-3.021m5.532,-12.929l0,1.993l-13.776,0c-2.287,0 -4.894,0.256 -5.691,2.681c-0.213,0.681 -0.373,2.128 -0.373,3.107l16.382,0c1.117,0 2.181,0.169 3.032,0.851c1.17,0.936 1.33,2.255 1.33,3.403c0,2.851 -0.692,5.66 -3.989,7.319c-2.607,1.319 -6.01,1.447 -9.308,1.447c-2.66,0 -7.447,0 -10.532,-2.128c-3.085,-2.127 -3.35,-5.233 -3.35,-9.446c0,-2.978 0.159,-6.084 2.021,-8.212c2.34,-2.638 5.744,-2.851 8.616,-2.851l13.801,0c1.014,0 1.837,0.823 1.837,1.836"/>
     </g>
     <g id="g72">
      <path fill-rule="nonzero" fill="#ea002a" id="path74" d="m129.9427,97.7422c0,-0.596 -0.16,-1.319 -1.383,-1.319l-8.851,0c-2.25,0 -4.074,-1.029 -4.074,-2.298l0,2.298c0.053,1.49 0,2.723 1.277,3.873c1.701,1.531 4.255,1.488 5.904,1.488c1.755,0 3.776,-0.085 5.318,-1.021c0.905,-0.553 1.809,-1.617 1.809,-3.021m5.531,-12.929l0,1.993l-13.775,0c-2.287,0 -4.894,0.256 -5.692,2.681c-0.212,0.681 -0.372,2.128 -0.372,3.107l16.382,0c1.117,0 2.181,0.169 3.032,0.851c1.17,0.936 1.33,2.255 1.33,3.403c0,2.851 -0.692,5.66 -3.99,7.319c-2.606,1.319 -6.009,1.447 -9.307,1.447c-2.66,0 -7.447,0 -10.532,-2.128c-3.085,-2.127 -3.351,-5.233 -3.351,-9.446c0,-2.978 0.16,-6.084 2.022,-8.212c2.34,-2.638 5.744,-2.851 8.616,-2.851l13.801,0c1.014,0 1.836,0.823 1.836,1.836"/>
     </g>
     <g id="g76">
      <path fill-rule="nonzero" fill="#ea002a" id="path78" d="m36.5677,111.8399l-2.549,0c-1.015,0 -1.837,-0.822 -1.837,-1.836l0,-0.51l0,-3.965l0.025,0c0.176,1.042 1.361,2.129 3.086,2.129l1.275,0c1.014,0 1.836,0.823 1.836,1.836l0,0.51c0,1.014 -0.822,1.836 -1.836,1.836"/>
     </g>
    </g>
   </g>
  </g>
 </g>
</svg>